<?xml version="1.0" standalone="no"?>
<!DOCTYPE svg PUBLIC "-//W3C//DTD SVG 20010904//EN"
 "http://www.w3.org/TR/2001/REC-SVG-20010904/DTD/svg10.dtd">
<svg version="1.0" xmlns="http://www.w3.org/2000/svg"
 width="800.000000pt" height="400.000000pt" viewBox="0 0 800.000000 400.000000"
 preserveAspectRatio="xMidYMid meet">

<g transform="translate(0.000000,400.000000) scale(0.100000,-0.100000)"
fill="#000000" stroke="none">
<path d="M540 2430 c0 -28 2 -30 40 -30 38 0 40 2 40 30 0 28 -2 30 -40 30
-38 0 -40 -2 -40 -30z"/>
<path d="M1040 2430 c0 -28 2 -30 40 -30 38 0 40 2 40 30 0 28 -2 30 -40 30
-38 0 -40 -2 -40 -30z"/>
<path d="M72 2437 c2 -8 32 -98 68 -200 l65 -187 51 0 51 0 102 200 102 200
-50 0 c-34 0 -51 -4 -52 -12 0 -7 -33 -80 -73 -163 l-73 -150 -53 163 -53 162
-44 0 c-32 0 -44 -4 -41 -13z"/>
<path d="M1536 2318 c-4 -73 -9 -163 -12 -200 l-6 -68 41 0 c50 0 48 -9 56
223 l6 177 -40 0 -39 0 -6 -132z"/>
<path d="M2190 2428 c0 -13 -7 -97 -15 -188 -8 -91 -15 -171 -15 -177 0 -8 13
-13 34 -13 l34 0 6 63 c3 34 8 102 12 151 3 51 9 84 14 75 4 -8 25 -76 46
-151 l38 -138 41 0 40 0 54 146 c30 80 58 147 62 150 5 3 5 -63 2 -146 l-6
-150 41 0 42 0 0 200 0 200 -57 0 -58 0 -55 -144 c-30 -79 -58 -139 -61 -133
-3 7 -23 72 -44 145 l-39 132 -58 0 c-53 0 -58 -2 -58 -22z"/>
<path d="M2725 2394 c20 -30 47 -73 62 -95 l26 -39 -43 -57 c-24 -32 -61 -79
-83 -105 l-39 -48 50 0 51 0 55 70 54 70 43 -70 44 -70 47 0 c27 0 48 2 48 5
0 3 -27 47 -60 98 -33 52 -60 100 -60 107 0 7 16 33 35 56 19 24 51 64 71 89
l36 45 -49 0 c-49 0 -49 0 -97 -66 l-49 -65 -17 27 c-10 15 -26 44 -36 65 -17
38 -18 39 -71 39 l-54 0 36 -56z"/>
<path d="M3300 2195 l0 -235 35 0 35 0 0 235 0 235 -35 0 -35 0 0 -235z"/>
<path d="M3490 2355 c0 -23 3 -25 51 -25 l52 0 -6 -140 -5 -140 39 0 39 0 0
118 c0 160 1 162 61 162 46 0 49 2 49 25 l0 25 -140 0 -140 0 0 -25z"/>
<path d="M775 2354 c-11 -3 -30 -7 -41 -9 -13 -3 -23 -15 -26 -30 -7 -33 -2
-36 37 -19 64 26 130 15 123 -22 -2 -14 -24 -26 -82 -44 -119 -39 -155 -95
-102 -157 21 -24 31 -28 79 -28 61 0 62 0 71 32 6 20 4 21 -32 16 -42 -6 -66
12 -60 44 3 19 52 47 102 59 l28 7 -4 -77 -3 -76 42 0 43 0 2 108 c2 145 1
153 -20 175 -19 19 -113 32 -157 21z"/>
<path d="M1253 2349 c-25 -6 -43 -16 -43 -24 0 -7 -3 -20 -6 -29 -6 -14 -2
-14 36 -1 75 26 135 16 128 -21 -2 -14 -24 -26 -82 -44 -119 -39 -155 -95
-102 -157 21 -24 31 -28 79 -28 61 0 64 1 69 29 2 16 -3 19 -36 20 -42 1 -64
22 -53 50 7 17 48 38 101 50 l28 7 -4 -76 -3 -75 42 0 43 0 2 108 c2 146 2
153 -21 176 -24 23 -111 31 -178 15z"/>
<path d="M1752 2339 c-50 -25 -72 -62 -78 -133 -6 -58 14 -107 56 -138 31 -22
104 -33 164 -24 42 7 46 10 46 36 0 28 -1 28 -32 19 -82 -23 -142 4 -154 69
l-6 32 112 0 113 0 -6 46 c-7 68 -48 106 -119 111 -40 3 -63 -1 -96 -18z m120
-46 c10 -9 18 -27 18 -40 0 -22 -3 -23 -65 -23 -72 0 -80 9 -44 54 24 30 63
34 91 9z"/>
<path d="M5683 2353 c-12 -2 -24 -14 -27 -29 -4 -13 -13 -24 -21 -24 -9 0 -15
-10 -15 -25 0 -16 6 -25 16 -25 14 0 15 -10 9 -84 -6 -77 -5 -86 14 -105 34
-34 106 -25 113 14 4 20 1 22 -26 21 l-31 -1 0 75 0 75 33 3 c26 3 32 7 32 28
0 20 -5 24 -30 24 -27 0 -30 3 -30 30 0 17 -3 29 -7 29 -5 -1 -18 -4 -30 -6z"/>
<path d="M530 2253 c0 -54 -3 -122 -6 -150 l-7 -53 47 0 46 0 0 104 c0 57 3
124 6 150 l7 46 -47 0 -46 0 0 -97z"/>
<path d="M1028 2181 c-3 -151 -6 -172 -23 -191 -15 -17 -28 -21 -57 -18 -36 3
-38 2 -38 -24 0 -24 4 -27 45 -34 63 -9 112 2 131 31 11 17 17 57 20 142 2 65
6 151 8 191 l4 72 -43 0 -43 0 -4 -169z"/>
<path d="M3798 2175 l-3 -125 31 0 31 0 6 78 c7 84 26 112 73 112 20 0 24 5
24 30 0 25 -4 30 -23 30 -12 0 -33 -7 -45 -16 -20 -14 -22 -14 -22 0 0 12 -10
16 -34 16 l-35 0 -3 -125z"/>
<path d="M4039 2294 c-18 -4 -28 -13 -31 -28 -4 -22 -3 -23 26 -15 73 21 131
2 103 -34 -6 -8 -39 -23 -72 -31 -64 -16 -95 -43 -95 -81 0 -35 44 -65 95 -65
36 0 43 3 47 23 4 19 0 22 -31 22 -27 0 -36 5 -39 19 -5 24 5 33 60 50 l46 13
-5 -58 -6 -59 37 0 36 0 0 109 c0 83 -3 111 -15 121 -15 13 -113 21 -156 14z"/>
<path d="M4286 2213 c-4 -49 -9 -105 -11 -125 -5 -37 -5 -38 29 -38 31 0 34 3
40 38 3 20 6 51 6 68 0 42 34 84 69 84 43 0 51 -16 51 -107 l0 -83 29 0 c37 0
41 12 41 118 0 97 -4 106 -43 121 -42 16 -78 13 -116 -10 l-34 -20 6 20 c4 18
1 21 -28 21 l-33 0 -6 -87z"/>
<path d="M4626 2279 c-40 -32 -34 -62 24 -116 41 -38 48 -49 38 -61 -9 -10
-25 -13 -61 -8 -41 4 -48 3 -43 -10 3 -9 6 -19 6 -24 0 -12 75 -23 110 -15 40
9 60 30 60 65 0 21 -12 39 -46 69 -59 52 -55 76 11 69 39 -5 45 -3 45 13 0 42
-98 54 -144 18z"/>
<path d="M4858 2293 c-31 -5 -33 -18 -42 -230 l-6 -123 35 0 35 0 0 72 c0 69
1 71 19 54 24 -22 79 -30 113 -17 58 22 88 126 55 191 -24 49 -103 69 -209 53z
m138 -64 c27 -30 24 -97 -6 -121 -28 -22 -58 -23 -82 -1 -22 20 -26 128 -5
136 30 13 75 6 93 -14z"/>
<path d="M5195 2286 c-46 -20 -67 -51 -73 -104 -5 -61 15 -104 62 -126 125
-59 253 63 191 183 -27 53 -115 76 -180 47z m109 -58 c31 -44 12 -124 -33
-135 -14 -3 -35 0 -50 8 -36 20 -42 98 -12 128 28 28 75 27 95 -1z"/>
<path d="M5440 2175 l0 -125 29 0 c28 0 28 0 34 78 7 84 26 112 73 112 20 0
24 5 24 30 0 25 -4 30 -23 30 -12 0 -33 -7 -45 -16 -20 -14 -22 -14 -22 0 0
12 -10 16 -35 16 l-35 0 0 -125z"/>
<path d="M5894 2294 c-12 -3 -34 -19 -50 -35 -26 -27 -29 -37 -29 -96 0 -58 3
-67 28 -88 33 -29 82 -40 142 -31 39 6 45 10 45 32 0 21 -3 23 -19 14 -56 -29
-131 2 -131 55 0 25 1 25 91 25 l92 0 -6 37 c-11 68 -80 105 -163 87z m84 -46
c7 -7 12 -20 12 -30 0 -15 -9 -18 -55 -18 -59 0 -67 8 -35 40 22 22 60 26 78
8z"/>
<path d="M6270 2293 c-29 -11 -50 -36 -50 -60 0 -16 17 -39 50 -70 41 -38 48
-49 38 -61 -9 -10 -26 -13 -61 -9 -39 3 -47 1 -43 -10 4 -8 6 -18 6 -23 0 -12
75 -23 110 -15 40 9 60 30 60 65 0 21 -12 39 -46 69 -59 52 -55 76 11 69 39
-5 45 -3 45 13 0 30 -72 49 -120 32z"/>
<path d="M6514 2294 c-12 -3 -34 -18 -49 -34 -22 -23 -29 -41 -32 -82 -2 -31
1 -63 9 -78 17 -33 73 -60 123 -60 64 0 85 9 85 37 0 20 -3 22 -19 13 -56 -29
-131 2 -131 55 0 25 1 25 91 25 l92 0 -6 37 c-11 68 -80 105 -163 87z m84 -46
c7 -7 12 -20 12 -30 0 -15 -9 -18 -55 -18 -59 0 -67 8 -35 40 22 22 60 26 78
8z"/>
<path d="M6806 2290 c-78 -25 -119 -120 -84 -195 24 -53 104 -71 152 -34 l26
20 0 -30 c0 -61 -55 -85 -138 -62 -32 10 -33 9 -30 -17 3 -24 8 -28 59 -36 66
-10 119 -2 150 23 21 17 24 29 31 172 4 84 6 155 4 157 -9 8 -144 11 -170 2z
m102 -72 c5 -46 -17 -108 -43 -120 -57 -26 -101 22 -83 89 11 42 44 64 88 61
30 -3 35 -7 38 -30z"/>
<path d="M7046 2278 c-3 -13 -6 -62 -6 -109 0 -105 14 -124 90 -124 33 0 54 6
69 19 19 17 21 17 21 3 0 -13 9 -17 35 -17 l35 0 0 88 c0 48 3 104 6 125 7 37
6 37 -28 37 l-35 0 -6 -74 c-6 -87 -18 -113 -54 -122 -48 -12 -58 4 -61 105
l-3 91 -28 0 c-21 0 -30 -6 -35 -22z"/>
<path d="M7350 2175 l0 -125 30 0 c29 0 30 2 30 43 1 97 27 147 77 147 19 0
23 5 23 30 0 25 -4 30 -23 30 -12 0 -33 -7 -45 -16 -20 -14 -22 -14 -22 0 0
12 -10 16 -35 16 l-35 0 0 -125z"/>
<path d="M7605 2286 c-46 -20 -67 -51 -73 -104 -5 -61 15 -104 62 -126 126
-60 253 63 190 185 -27 52 -113 74 -179 45z m109 -58 c23 -32 20 -90 -4 -116
-25 -26 -66 -29 -92 -5 -26 23 -25 96 2 123 27 27 75 26 94 -2z"/>
</g>
</svg>
